<svg 
 xmlns="http://www.w3.org/2000/svg"
 xmlns:xlink="http://www.w3.org/1999/xlink"
 width="58px" height="57px">
 <symbol id="search_2">
<path fill-rule="evenodd"  fill="rgb(84, 116, 253)"
 d="M57.266,53.812 L54.312,56.766 L38.000,40.453 C37.062,41.297 36.031,42.048 34.906,42.703 C33.781,43.360 32.608,43.922 31.391,44.391 C30.171,44.861 28.881,45.212 27.523,45.445 C26.163,45.680 24.827,45.797 23.516,45.797 C20.327,45.797 17.350,45.188 14.586,43.969 C11.820,42.751 9.405,41.110 7.344,39.047 C5.280,36.986 3.663,34.571 2.492,31.805 C1.319,29.040 0.734,26.109 0.734,23.016 C0.734,19.830 1.319,16.852 2.492,14.086 C3.663,11.322 5.280,8.907 7.344,6.844 C9.405,4.783 11.820,3.165 14.586,1.992 C17.350,0.821 20.327,0.234 23.516,0.234 C26.609,0.234 29.538,0.821 32.305,1.992 C35.069,3.165 37.484,4.783 39.547,6.844 C41.608,8.907 43.249,11.322 44.469,14.086 C45.686,16.852 46.297,19.830 46.297,23.016 C46.297,24.329 46.178,25.665 45.945,27.023 C45.710,28.383 45.359,29.673 44.891,30.890 C44.420,32.110 43.858,33.281 43.203,34.406 C42.546,35.531 41.797,36.564 40.953,37.500 L57.266,53.812 L57.266,53.812 ZM3.125,23.016 C3.125,25.828 3.639,28.454 4.672,30.890 C5.702,33.329 7.155,35.485 9.031,37.359 C10.905,39.236 13.085,40.712 15.570,41.789 C18.053,42.868 20.703,43.406 23.516,43.406 C26.328,43.406 28.952,42.868 31.391,41.789 C33.827,40.712 35.983,39.236 37.859,37.359 C39.734,35.485 41.210,33.329 42.289,30.890 C43.366,28.454 43.906,25.828 43.906,23.016 C43.906,20.203 43.366,17.555 42.289,15.070 C41.210,12.587 39.734,10.408 37.859,8.531 C35.983,6.657 33.827,5.204 31.391,4.172 C28.952,3.141 26.328,2.625 23.516,2.625 C20.703,2.625 18.053,3.141 15.570,4.172 C13.085,5.204 10.905,6.657 9.031,8.531 C7.155,10.408 5.702,12.587 4.672,15.070 C3.639,17.555 3.125,20.203 3.125,23.016 L3.125,23.016 Z"/>
</symbol>
</svg>