<svg 
 xmlns="http://www.w3.org/2000/svg">
<symbol id="f_logo">
<path fill-rule="evenodd"  stroke="rgb(0, 0, 0)" stroke-width="2px" stroke-linecap="butt" stroke-linejoin="miter" fill="none"
 d="M63.675,68.857 L34.860,13.860 L6.046,68.857 L63.675,68.857 Z"/>
<path fill-rule="evenodd"  stroke="rgb(0, 0, 0)" stroke-width="2px" stroke-linecap="butt" stroke-linejoin="miter" fill="none"
 d="M34.500,1.000 C53.002,1.000 68.000,15.870 68.000,34.214 C68.000,52.558 53.002,67.429 34.500,67.429 C15.998,67.429 1.000,52.558 1.000,34.214 C1.000,15.870 15.998,1.000 34.500,1.000 Z"/>
<path fill-rule="evenodd"  fill="rgb(0, 0, 0)"
 d="M34.860,63.857 C36.850,63.857 38.462,65.456 38.462,67.429 C38.462,69.401 36.850,71.000 34.860,71.000 C32.871,71.000 31.258,69.401 31.258,67.429 C31.258,65.456 32.871,63.857 34.860,63.857 Z"/>
<path fill-rule="evenodd"  fill="rgb(0, 0, 0)"
 d="M61.516,63.857 C63.505,63.857 65.118,65.456 65.118,67.429 C65.118,69.401 63.505,71.000 61.516,71.000 C59.527,71.000 57.914,69.401 57.914,67.429 C57.914,65.456 59.527,63.857 61.516,63.857 Z"/>
<path fill-rule="evenodd"  fill="rgb(0, 0, 0)"
 d="M6.043,63.857 C8.032,63.857 9.645,65.456 9.645,67.429 C9.645,69.401 8.032,71.000 6.043,71.000 C4.054,71.000 2.441,69.401 2.441,67.429 C2.441,65.456 4.054,63.857 6.043,63.857 Z"/>
</symbol>
</svg>