<svg xmlns="http://www.w3.org/2000/svg"><symbol id="tag"><path d="M76.921 76H2.078a2.09 2.09 0 01-2.08-2.1V12.98a2.09 2.09 0 012.08-2.1h74.843A2.09 2.09 0 0179 12.98V73.9a2.09 2.09 0 01-2.079 2.1zM4.156 71.8h70.686V15.08H4.156V71.8zm72.765-56.72H2.078a2.09 2.09 0 01-2.08-2.1V2.09a2.09 2.09 0 012.08-2.1h74.843A2.09 2.09 0 0179 2.09v10.89a2.09 2.09 0 01-2.079 2.1zm-72.765-4.2h70.686V4.19H4.156v6.69zm5.025-4.81a1.47 1.47 0 11-1.455 1.47 1.463 1.463 0 011.455-1.47zm4.35 0a1.465 1.465 0 11-1.453 1.47 1.463 1.463 0 011.453-1.47zm4.35 0a1.47 1.47 0 11-1.454 1.47 1.463 1.463 0 011.454-1.47zm11.164 43.11a1.8 1.8 0 01-1.286-.54l-5.66-5.71a1.851 1.851 0 010-2.6l5.649-5.71a1.82 1.82 0 012.573 0 1.851 1.851 0 010 2.6l-4.364 4.41 4.374 4.41a1.853 1.853 0 010 2.6 1.8 1.8 0 01-1.286.54zm20.917 0a1.8 1.8 0 01-1.286-.54 1.851 1.851 0 010-2.6l4.365-4.4-4.375-4.42a1.853 1.853 0 010-2.6 1.819 1.819 0 012.572 0l5.66 5.72a1.837 1.837 0 010 2.59l-5.651 5.71a1.8 1.8 0 01-1.285.54zm-13.069 4.24a1.767 1.767 0 01-.452-.06 1.835 1.835 0 01-1.312-2.23l4.623-18.28a1.818 1.818 0 012.212-1.33 1.842 1.842 0 011.314 2.24l-4.624 18.28a1.821 1.821 0 01-1.761 1.38z" fill="#3c3c3c" fill-rule="evenodd"/></symbol></svg>