<svg xmlns="http://www.w3.org/2000/svg"><symbol id="check"><path d="M21.756 38.11a1.579 1.579 0 01-1.109-.45l-3.1-3.08a1.548 1.548 0 010-2.2 1.574 1.574 0 012.219 0l1.989 1.97 5.086-5.05a1.574 1.574 0 012.219 0 1.546 1.546 0 010 2.2l-6.2 6.16a1.589 1.589 0 01-1.104.45zm32.555-3.07H35.637a1.56 1.56 0 110-3.12h18.674a1.56 1.56 0 110 3.12zM21.756 64.79a1.579 1.579 0 01-1.109-.45l-3.1-3.08a1.548 1.548 0 010-2.2 1.574 1.574 0 012.219 0l1.989 1.97 5.086-5.05a1.574 1.574 0 012.219 0 1.546 1.546 0 010 2.2l-6.2 6.16a1.589 1.589 0 01-1.104.45zm32.555-3.07H35.637a1.56 1.56 0 110-3.12h18.674a1.56 1.56 0 110 3.12zM21.756 78.14a1.589 1.589 0 01-1.109-.46l-3.1-3.08a1.548 1.548 0 010-2.2 1.574 1.574 0 012.219 0l1.989 1.97 5.086-5.05a1.574 1.574 0 012.219 0 1.557 1.557 0 010 2.21l-6.2 6.15a1.6 1.6 0 01-1.104.46zm32.555-3.08H35.637a1.56 1.56 0 110-3.12h18.674a1.56 1.56 0 110 3.12zM21.756 51.45a1.579 1.579 0 01-1.109-.45l-3.1-3.08a1.56 1.56 0 010-2.21 1.593 1.593 0 012.219 0l1.989 1.98 5.086-5.05a1.574 1.574 0 012.219 0 1.545 1.545 0 010 2.2L22.86 51a1.589 1.589 0 01-1.104.45zm32.555-3.07H35.637a1.56 1.56 0 110-3.12h18.674a1.56 1.56 0 110 3.12zM76.888 11.4H58.422a6.132 6.132 0 00-6.141-5.68H46.3a5.812 5.812 0 00-11.623 0h-5.994a6.128 6.128 0 00-6.131 5.68H2.081a2.088 2.088 0 00-2.092 2.08v75.44A2.082 2.082 0 002.081 91h74.807a2.083 2.083 0 002.093-2.08V13.48a2.089 2.089 0 00-2.093-2.08zm-50.177.44a1.965 1.965 0 011.968-1.96h6.539a3.63 3.63 0 003.641-3.61v-.48a1.627 1.627 0 013.254 0v.48a3.627 3.627 0 003.63 3.61h6.539a1.966 1.966 0 011.977 1.96v4.26H26.713v-4.26zm48.085 75H4.173V15.56h18.353v2.62a2.082 2.082 0 002.092 2.08h31.731a2.082 2.082 0 002.092-2.08v-2.62h16.353v71.28zm-34.311-76.7a2 2 0 11-2.01 2 2 2 0 012.01-2z" fill="#3c3c3c" fill-rule="evenodd"/></symbol></svg>